<svg xmlns="http://www.w3.org/2000/svg" version="1.1" xmlns:xlink="http://www.w3.org/1999/xlink" xmlns:svgjs="http://svgjs.dev/svgjs" width="1440" height="560" preserveAspectRatio="none" viewBox="0 0 1440 560"><g mask="url(&quot;#SvgjsMask1021&quot;)" fill="none"><rect width="1440" height="560" x="0" y="0" fill="rgba(23, 25, 35, 1)"></rect><path d="M254.517,410.233C275.04,409.821,294.023,399.046,304.064,381.142C313.895,363.612,311.976,342.563,302.369,324.909C292.264,306.34,275.658,290.093,254.517,290.096C233.379,290.099,217.161,306.561,206.686,324.921C196.325,343.081,191.173,364.967,201.398,383.204C211.811,401.777,233.228,410.661,254.517,410.233" fill="rgba(26, 54, 93, 0.23)" class="triangle-float2"></path><path d="M1248.258579916631 243.32102850899224L1179.0174147337978 260.5847899385629 1239.5336394695703 355.8146569980277z" fill="rgba(26, 54, 93, 0.23)" class="triangle-float1"></path><path d="M594.593,290.011C618.557,290.133,646.582,291.227,658.803,270.613C671.152,249.783,658.34,224.68,645.493,204.154C633.661,185.25,616.89,168.42,594.593,168.023C571.707,167.615,552.499,182.819,540.453,202.283C527.618,223.024,518.696,249.208,531.506,269.965C543.927,290.091,570.943,289.891,594.593,290.011" fill="rgba(26, 54, 93, 0.23)" class="triangle-float3"></path><path d="M497.8109941426354 83.42569818441459L578.3346121816835-67.66964140003421 428.69041106755594-65.05759215345589z" fill="rgba(26, 54, 93, 0.23)" class="triangle-float1"></path><path d="M345.957,246.904C366.169,248.48,389.034,245.046,399.305,227.567C409.662,209.943,401.344,188.38,390.549,171.021C380.488,154.842,364.986,142.71,345.957,141.776C325.167,140.755,302.655,147.755,293.079,166.237C283.979,183.801,294.461,203.694,305.306,220.237C314.828,234.763,328.641,245.554,345.957,246.904" fill="rgba(26, 54, 93, 0.23)" class="triangle-float3"></path><path d="M1108.996293983451 398.32375300016537L1077.6398063618853 336.78318097833824 1001.0071921399276 414.58819842160045z" fill="rgba(26, 54, 93, 0.23)" class="triangle-float1"></path><path d="M1374.7864013960962 193.10964662228596L1439.5103058922166 158.69533614774195 1355.5268879323405 78.8166346408334z" fill="rgba(26, 54, 93, 0.23)" class="triangle-float3"></path><path d="M1321.0203401377576 567.1657510049781L1448.3400834803406 484.48334291434657 1238.337932047126 439.8460076623951z" fill="rgba(26, 54, 93, 0.23)" class="triangle-float2"></path><path d="M703.5706450658664 372.6799770347298L692.65124231467 497.48932159582097 817.4605868757611 508.40872434701737 828.3799896269576 383.5993797859262z" fill="rgba(26, 54, 93, 0.23)" class="triangle-float1"></path><path d="M874.7700727231554-8.624731272501066L897.9894976929269 156.59006212858242 1039.9848661242388-31.84415624227257z" fill="rgba(26, 54, 93, 0.23)" class="triangle-float3"></path></g><defs><mask id="SvgjsMask1021"><rect width="1440" height="560" fill="#ffffff"></rect></mask><style>
                @keyframes float1 {
                    0%{transform: translate(0, 0)}
                    50%{transform: translate(-10px, 0)}
                    100%{transform: translate(0, 0)}
                }

                .triangle-float1 {
                    animation: float1 5s infinite;
                }

                @keyframes float2 {
                    0%{transform: translate(0, 0)}
                    50%{transform: translate(-5px, -5px)}
                    100%{transform: translate(0, 0)}
                }

                .triangle-float2 {
                    animation: float2 4s infinite;
                }

                @keyframes float3 {
                    0%{transform: translate(0, 0)}
                    50%{transform: translate(0, -10px)}
                    100%{transform: translate(0, 0)}
                }

                .triangle-float3 {
                    animation: float3 6s infinite;
                }
            </style></defs></svg>